HIERARCHY
ROOT Hips
{
	OFFSET 0.000000 0.000000 0.000000
	CHANNELS 6 Xposition Yposition Zposition Zrotation Yrotation Xrotation 
	JOINT LHipJoint
	{
		OFFSET 0.000000 0.000000 0.000000
		CHANNELS 3 Zrotation Yrotation Xrotation
		JOINT LeftUpLeg
		{
			OFFSET 1.363060 -1.794630 0.839290
			CHANNELS 3 Zrotation Yrotation Xrotation
			JOINT LeftLeg
			{
				OFFSET 2.448110 -6.726130 0.000000
				CHANNELS 3 Zrotation Yrotation Xrotation
				JOINT LeftFoot
				{
					OFFSET 2.562200 -7.039590 0.000000
					CHANNELS 3 Zrotation Yrotation Xrotation
					JOINT LeftToeBase
					{
						OFFSET 0.157640 -0.433110 2.322550
						CHANNELS 3 Zrotation Yrotation Xrotation
						End Site
						{
							OFFSET 0.000000 0.000000 0.000000
						}
					}
				}
			}
		}
	}
	JOINT RHipJoint
	{
		OFFSET 0.000000 0.000000 0.000000
		CHANNELS 3 Zrotation Yrotation Xrotation
		JOINT RightUpLeg
		{
			OFFSET -1.305520 -1.794630 0.839290
			CHANNELS 3 Zrotation Yrotation Xrotation
			JOINT RightLeg
			{
				OFFSET -2.542530 -6.985550 0.000000
				CHANNELS 3 Zrotation Yrotation Xrotation
				JOINT RightFoot
				{
					OFFSET -2.568260 -7.056230 0.000000
					CHANNELS 3 Zrotation Yrotation Xrotation
					JOINT RightToeBase
					{
						OFFSET -0.164730 -0.452590 2.363150
						CHANNELS 3 Zrotation Yrotation Xrotation
						End Site
						{
							OFFSET 0.000000 0.000000 0.000000
						}
					}
				}
			}
		}
	}
	JOINT LowerBack
	{
		OFFSET 0.000000 0.000000 0.000000
		CHANNELS 3 Zrotation Yrotation Xrotation
		JOINT Spine
		{
			OFFSET 0.028270 2.035590 -0.193380
			CHANNELS 3 Zrotation Yrotation Xrotation
			JOINT Spine1
			{
				OFFSET 0.056720 2.048850 -0.042750
				CHANNELS 3 Zrotation Yrotation Xrotation
				JOINT Neck
				{
					OFFSET 0.000000 0.000000 0.000000
					CHANNELS 3 Zrotation Yrotation Xrotation
					JOINT Neck1
					{
						OFFSET -0.054170 1.746240 0.172020
						CHANNELS 3 Zrotation Yrotation Xrotation
						JOINT Head
						{
							OFFSET 0.104070 1.761360 -0.123970
							CHANNELS 3 Zrotation Yrotation Xrotation
							End Site
							{
								OFFSET 0.000000 0.000000 0.000000
							}
						}
					}
				}
				JOINT LeftShoulder
				{
					OFFSET 0.000000 0.000000 0.000000
					CHANNELS 3 Zrotation Yrotation Xrotation
					JOINT LeftArm
					{
						OFFSET 3.362410 1.200890 -0.311210
						CHANNELS 3 Zrotation Yrotation Xrotation
						JOINT LeftForeArm
						{
							OFFSET 4.983000 -0.000000 -0.000000
							CHANNELS 3 Zrotation Yrotation Xrotation
							JOINT LeftHand
							{
								OFFSET 3.483560 -0.000000 -0.000000
								CHANNELS 3 Zrotation Yrotation Xrotation
								JOINT LeftFingerBase
								{
									OFFSET 0.000000 0.000000 0.000000
									CHANNELS 3 Zrotation Yrotation Xrotation
									JOINT LeftHandIndex1
									{
										OFFSET 0.715260 -0.000000 -0.000000
										CHANNELS 3 Zrotation Yrotation Xrotation
										End Site
										{
											OFFSET 0.000000 0.000000 0.000000
										}
									}
								}
								JOINT LThumb
								{
									OFFSET 0.000000 0.000000 0.000000
									CHANNELS 3 Zrotation Yrotation Xrotation
									End Site
									{
										OFFSET 0.000000 0.000000 0.000000
									}
								}
							}
						}
					}
				}
				JOINT RightShoulder
				{
					OFFSET 0.000000 0.000000 0.000000
					CHANNELS 3 Zrotation Yrotation Xrotation
					JOINT RightArm
					{
						OFFSET -3.136600 1.374050 -0.404650
						CHANNELS 3 Zrotation Yrotation Xrotation
						JOINT RightForeArm
						{
							OFFSET -5.241900 -0.000000 -0.000000
							CHANNELS 3 Zrotation Yrotation Xrotation
							JOINT RightHand
							{
								OFFSET -3.444170 -0.000000 -0.000000
								CHANNELS 3 Zrotation Yrotation Xrotation
								JOINT RightFingerBase
								{
									OFFSET 0.000000 0.000000 0.000000
									CHANNELS 3 Zrotation Yrotation Xrotation
									JOINT RightHandIndex1
									{
										OFFSET -0.622530 -0.000000 -0.000000
										CHANNELS 3 Zrotation Yrotation Xrotation
										End Site
										{
											OFFSET 0.000000 0.000000 0.000000
										}
									}
								}
								JOINT RThumb
								{
									OFFSET 0.000000 0.000000 0.000000
									CHANNELS 3 Zrotation Yrotation Xrotation
									End Site
									{
										OFFSET 0.000000 0.000000 0.000000
									}
								}
							}
						}
					}
				}
			}
		}
	}
}
MOTION
Frames: 11
Frame Time: 0.008333
-5.886838 18.299652 10.779196 174.282547 -57.976070 -176.838381 -1.715050 2.289507 3.111469 -13.694887 -0.094174 -0.754999 3.045461 11.107356 35.316781 0.804339 -2.341869 20.716054 0.179600 -2.729600 -7.526800 0.362008 -1.492594 0.642401 27.031658 -1.502250 -18.255767 -2.214815 -9.599514 28.116330 2.588893 -15.944093 6.194280 -0.490000 -4.488400 12.455000 -5.720695 -5.213146 7.550062 2.963925 -7.373448 1.416481 6.578795 -3.952641 -3.168825 -15.464588 -16.408422 9.317558 11.713934 -35.889936 25.653179 2.600100 -18.123400 16.005400 -6.163788 -0.979954 -1.018691 -84.069157 -5.839801 22.181715 17.011909 -23.612402 -4.228841 -1.168550 -2.521791 3.332773 18.776698 25.965130 9.758300 -7.125000 0.000000 0.000000 -12.491100 59.546400 -4.479600 5.522453 1.922646 -0.716500 84.428332 -11.484623 10.275902 -14.570397 21.348107 -2.855479 0.319991 -0.039931 11.006353 -13.706904 3.800508 -0.941900 7.125000 0.000000 0.000000 9.522500 -26.071600 4.426100 
-5.805997 18.283263 10.880423 173.976780 -58.588416 -176.473954 -1.774409 2.327227 3.186156 -14.107265 -0.124295 0.160912 2.617619 10.548832 33.391271 0.591761 -1.754441 18.406024 0.448500 -4.296500 -11.912400 0.363079 -1.488700 0.611734 26.651756 -1.361006 -18.911043 -2.241601 -9.680997 28.295012 2.636155 -16.183983 6.151632 -0.524000 -4.639200 12.882200 -5.724079 -5.305403 7.524571 2.958054 -7.492289 1.373803 6.583493 -4.012155 -3.215850 -15.387146 -16.346741 9.389399 11.710427 -35.749467 25.656282 2.637600 -18.064800 15.936900 -6.153166 -1.002149 -1.016333 -84.182675 -6.103113 22.608051 17.141488 -23.759348 -4.295555 -1.161463 -2.422118 3.468403 18.821999 24.684021 9.351900 -7.125000 0.000000 0.000000 -11.662100 58.187800 -3.796300 5.521270 1.923606 -0.718412 84.360412 -11.593606 10.184270 -14.413307 21.119445 -2.790479 0.325096 -0.049023 10.828152 -13.849820 3.998436 -1.004500 7.125000 0.000000 0.000000 9.395700 -25.859200 4.412900 
-5.722357 18.262179 10.979251 174.155558 -59.257031 -176.498423 -1.824784 2.376556 3.265625 -14.227315 -0.281666 1.040383 2.174988 9.933523 31.308378 0.462445 -1.224175 16.979192 0.683500 -5.285900 -14.725700 0.356819 -1.485437 0.578662 26.540452 -1.157545 -19.591669 -2.275007 -9.772200 28.511381 2.706289 -16.501273 6.000000 -0.591900 -4.925700 13.696900 -5.479435 -5.441516 7.462215 3.004893 -7.641957 1.342214 6.540612 -4.093510 -3.234529 -15.369958 -16.304062 9.354788 11.646129 -35.631359 25.726384 2.637600 -18.009900 15.934200 -6.140432 -1.023337 -1.013579 -84.283914 -6.370454 23.157777 17.292269 -23.937796 -4.375530 -1.179201 -2.325218 3.390184 19.299232 23.425042 9.167900 -7.125000 0.000000 0.000000 -10.427700 56.937100 -3.073100 5.515867 1.925516 -0.720832 84.345893 -11.710238 9.887229 -14.391787 21.089375 -2.780509 0.327374 -0.048407 10.963822 -13.913932 3.922963 -0.989800 7.125000 0.000000 0.000000 9.351200 -25.936900 4.374300 
-5.636519 18.237896 11.081277 174.091272 -60.011260 -176.339486 -1.872085 2.421089 3.339350 -14.417288 -0.581111 1.951069 1.764133 9.321519 29.302479 0.379155 -0.996974 15.926576 0.695700 -5.332000 -14.858000 0.350777 -1.482980 0.548039 26.278233 -0.932091 -20.214290 -2.306320 -9.862538 28.720855 2.808917 -16.923660 5.711509 -0.705100 -5.367000 14.958400 -5.380771 -5.530129 7.468643 3.056936 -7.747006 1.310168 6.589131 -4.149868 -3.285714 -15.400326 -16.356586 9.390974 11.546954 -35.611985 25.733526 2.617600 -17.999500 15.898900 -6.130530 -1.048559 -1.009216 -84.456424 -6.670005 23.806765 17.418862 -24.080938 -4.443497 -1.164313 -2.318607 3.470260 19.153690 23.333532 9.058500 -7.125000 0.000000 0.000000 -10.554100 56.806100 -3.077400 5.513787 1.928697 -0.721390 84.266481 -11.806662 9.583004 -14.370495 21.056657 -2.769447 0.332098 -0.051236 11.101885 -14.071690 3.924726 -1.002300 7.125000 0.000000 0.000000 9.228800 -25.931900 4.316700 
-5.548183 18.208917 11.186701 173.745104 -60.788350 -175.879662 -1.917766 2.455692 3.409822 -14.767875 -1.143221 2.964532 1.407437 8.765605 27.541839 0.281828 -1.164035 14.138890 0.833800 -5.825100 -16.277800 0.344618 -1.479658 0.523944 25.864083 -0.858601 -20.918070 -2.338032 -9.953789 28.941505 2.827518 -16.984758 5.570289 -0.770600 -5.605100 15.642900 -5.391650 -5.540316 7.532441 3.112284 -7.765253 1.187218 6.707949 -4.141334 -3.534451 -15.352547 -16.458929 9.551161 11.279876 -35.606843 25.741787 2.547800 -18.005600 15.770200 -6.117788 -1.073786 -1.012630 -84.785372 -6.809447 24.543604 17.546477 -24.220079 -4.513123 -1.148885 -2.306100 3.711600 18.950677 23.181204 8.898800 -7.125000 0.000000 0.000000 -10.717600 56.598300 -3.071800 5.512457 1.926072 -0.729293 84.153183 -12.089991 9.167799 -14.352990 21.023351 -2.758031 0.338375 -0.057021 11.008201 -14.284305 4.038544 -1.049100 7.125000 0.000000 0.000000 9.055800 -25.807600 4.260500 
-5.457349 18.184435 11.293924 173.444761 -61.538670 -175.433735 -1.956628 2.493457 3.475114 -15.100827 -1.783246 3.956068 1.101177 8.270377 25.976366 0.158761 -0.884689 12.101907 1.117500 -6.715400 -18.875000 0.336360 -1.474021 0.506641 25.461180 -0.741054 -21.602746 -2.376156 -10.051040 29.205489 2.753568 -16.639824 5.559565 -0.663600 -5.209800 14.507900 -5.203806 -5.500478 7.765435 3.111048 -7.700637 0.948392 6.647917 -4.061885 -4.127006 -15.259857 -16.539997 9.710808 10.910019 -35.687929 25.945196 2.414300 -18.054000 15.746000 -6.100126 -1.086504 -1.029407 -85.049213 -6.690157 25.530690 17.689226 -24.386834 -4.596057 -1.130532 -2.297552 3.827841 18.786336 23.044985 8.765200 -7.125000 0.000000 0.000000 -10.846100 56.417000 -3.061500 5.497394 1.931719 -0.749988 84.247107 -12.680828 8.403716 -14.450125 21.157327 -2.794012 0.333403 -0.056549 11.040716 -14.187179 4.034000 -1.040400 7.125000 0.000000 0.000000 9.132600 -25.813300 4.296200 
-5.363317 18.161851 11.400846 173.050634 -62.379074 -174.852165 -2.005656 2.508518 3.507582 -15.386656 -2.459075 4.675023 0.835625 7.837211 24.586251 0.024174 -0.065013 10.473304 1.316700 -7.267900 -20.511500 0.320212 -1.470502 0.485583 24.996230 -0.537175 -22.311816 -2.409777 -10.144750 29.446359 2.707447 -16.413369 5.497779 -0.574200 -4.852700 13.488900 -5.863202 -5.812135 7.261707 3.453375 -8.174249 1.234893 7.535195 -4.399488 -3.094544 -15.442163 -16.566017 8.812454 10.668530 -35.220154 25.986803 2.328300 -17.755900 15.769900 -6.107774 -1.151073 -0.993654 -85.762047 -7.858720 25.230140 17.860719 -24.552293 -4.671241 -1.137255 -2.300705 3.923661 18.857320 23.034986 8.798700 -7.125000 0.000000 0.000000 -10.766700 56.428000 -3.041600 5.528879 1.909348 -0.718554 83.350463 -11.726894 8.840424 -14.462655 21.191155 -2.799006 0.331004 -0.051848 11.114219 -14.062749 4.037413 -1.030600 7.125000 0.000000 0.000000 9.228600 -25.816600 4.341800 
-5.268486 18.132473 11.504871 172.431161 -63.179667 -174.033692 -2.058316 2.513331 3.532347 -15.712835 -3.152250 5.110418 0.601210 7.442469 23.345242 -0.045451 0.247972 9.286227 1.155100 -6.823700 -19.194100 0.316387 -1.457176 0.474907 24.342507 -0.162840 -22.979109 -2.427344 -10.211553 29.601255 2.714003 -16.374703 5.261847 -0.629800 -5.077800 14.130500 -5.839873 -5.951264 7.308193 3.381927 -8.356458 1.058197 7.438968 -4.457079 -3.396806 -15.357745 -16.515698 8.997555 10.620877 -35.183465 26.050826 2.339800 -17.757500 15.735300 -6.087712 -1.157031 -1.003381 -85.747556 -7.834015 25.946305 18.023457 -24.764917 -4.766811 -1.120460 -2.307998 3.871124 18.777605 23.120477 8.783200 -7.125000 0.000000 0.000000 -10.910300 56.501200 -3.102200 5.507355 1.915978 -0.732551 83.531152 -12.089537 8.366063 -14.620090 21.423649 -2.864135 0.319840 -0.049333 11.038683 -13.775469 4.090739 -1.021800 7.125000 0.000000 0.000000 9.449000 -25.766400 4.459400 
-5.172655 18.103793 11.603200 171.863354 -63.884915 -173.298308 -2.105832 2.512736 3.556284 -15.892414 -3.578549 5.370404 0.384508 7.036718 22.126839 -0.026060 -0.273272 8.217400 1.182700 -6.902000 -19.425300 0.312715 -1.442862 0.461597 23.699569 0.275120 -23.490918 -2.434719 -10.261904 29.717876 2.698625 -16.193605 4.917543 -0.650700 -5.160100 14.365600 -5.966442 -6.050705 7.231039 3.371743 -8.498262 1.012481 7.499374 -4.527605 -3.382630 -15.258148 -16.557453 8.954197 10.586229 -35.153856 26.038573 2.322300 -17.723400 15.694200 -6.071230 -1.176441 -1.000208 -85.787158 -8.107984 26.596722 18.178027 -24.952265 -4.858184 -1.058704 -2.284194 3.959383 18.089398 22.719621 8.299500 -7.125000 0.000000 0.000000 -11.493200 55.922600 -3.109100 5.496610 1.919223 -0.738589 83.589678 -12.160971 7.931788 -14.807910 21.699740 -2.941232 0.313423 -0.038873 10.829286 -13.566987 3.962836 -0.972000 7.125000 0.000000 0.000000 9.621000 -25.907400 4.510600 
-5.074126 18.081609 11.693434 171.254909 -64.571130 -172.572718 -2.145524 2.514709 3.587952 -15.945966 -3.558699 5.490382 0.185070 6.611365 20.892595 0.032883 -1.145349 7.006724 1.774900 -8.380600 -23.876100 0.308964 -1.429693 0.446872 23.060801 0.693921 -23.899917 -2.446014 -10.316056 29.852437 2.668382 -15.950114 4.591194 -0.599000 -4.954500 13.778900 -6.145105 -6.103341 7.252160 3.337938 -8.586573 0.957638 7.567696 -4.564915 -3.452094 -15.229735 -16.583028 8.979706 10.771334 -35.214037 25.985952 2.373700 -17.731100 15.720600 -6.050181 -1.183306 -1.002465 -85.737192 -8.258428 27.484810 18.344735 -25.166247 -4.960949 -1.021362 -2.263993 3.787675 17.829216 22.358547 8.050100 -7.125000 0.000000 0.000000 -11.611100 55.479900 -3.016300 5.486457 1.929896 -0.743713 83.747803 -12.228914 7.275736 -14.992736 21.968133 -3.016130 0.312755 -0.037575 10.943788 -13.607031 3.966571 -0.975300 7.125000 0.000000 0.000000 9.591500 -25.904900 4.497000 
-4.974199 18.054829 11.785867 170.128197 -65.252762 -171.279384 -2.198221 2.493961 3.600893 -16.160119 -3.337514 5.364209 0.013480 6.220979 19.769999 0.075086 -1.730459 5.843062 1.981600 -8.827600 -25.257500 0.307245 -1.411033 0.435585 22.088619 1.317611 -24.414498 -2.463125 -10.386803 30.025614 2.652536 -15.752859 4.175930 -0.581400 -4.882400 13.573400 -6.573019 -6.240777 7.130407 3.290198 -8.808808 0.924415 7.728149 -4.680331 -3.332339 -15.139231 -16.554308 8.905483 10.894300 -35.123477 25.943427 2.420200 -17.666800 15.700200 -6.037910 -1.201075 -0.997940 -85.725192 -8.592401 27.809479 18.456973 -25.304680 -5.025345 -1.014797 -2.247371 3.915025 17.780570 22.194913 7.969700 -7.125000 0.000000 0.000000 -11.589300 55.290300 -2.956800 5.479740 1.934043 -0.745032 83.791334 -12.099569 6.969088 -15.095902 22.120594 -3.057945 0.316379 -0.043604 11.085074 -13.787476 4.132392 -1.031400 7.125000 0.000000 0.000000 9.440900 -25.729500 4.463800 
